Coordinates
version=1
nRows=25
nColumns=24
inDegrees=yes
Units are S.I. units (second, meters, Newtons, ...)
Angles are in degrees.
endheader
time	pelvis_tilt	pelvis_list	pelvis_rotation	pelvis_tx	pelvis_ty	pelvis_tz	hip_flexion_r	hip_adduction_r	hip_rotation_r	knee_angle_r	ankle_angle_r	subtalar_angle_r	mtp_angle_r	hip_flexion_l	hip_adduction_l	hip_rotation_l	knee_angle_l	ankle_angle_l	subtalar_angle_l	mtp_angle_l	lumbar_extension	lumbar_bending	lumbar_rotation	
3.71000000000000	-7.20389654000000	1.69929896000000	-2.00548768000000	-0.12857911000000	0.89188436000000	-0.00507349000000	-7.71679045000000	-1.97821099000000	-5.70687055000000	-7.62940975000000	19.44222318000000	0.00000057000000	0.00000000000000	53.29839810000000	-2.55129101000000	-7.98840737000000	-33.41128594000000	13.04096236000000	-0.00000007000000	0.00000000000000	-15.35651092000000	-5.45371346000000	5.36605269000000	
3.72000000000000	-7.14705360000000	1.74147329000000	-2.42412943000000	-0.12710831000000	0.88964360000000	-0.00534503000000	-8.25002645000000	-2.30054666000000	-5.47505898000000	-8.49311717000000	20.34666370000000	0.00000056000000	0.00000000000000	53.35509301000000	-2.56840982000000	-7.48038875000000	-35.14244127000000	11.13253970000000	0.00000000000000	0.00000000000000	-15.30402490000000	-5.77426050000000	5.60492423000000	
3.73000000000000	-7.10797605000000	1.74653786000000	-2.87558164000000	-0.12548614000000	0.88761005000000	-0.00577429000000	-8.68670174000000	-2.62684288000000	-5.21225866000000	-9.50061001000000	21.11842476000000	0.00000059000000	0.00000000000000	53.32731520000000	-2.62333872000000	-7.23054654000000	-36.86568471000000	10.23828776000000	0.00000004000000	0.00000000000000	-15.21110963000000	-6.02309994000000	5.85257325000000	
3.74000000000000	-7.11880057000000	1.72703248000000	-3.31028687000000	-0.12369684000000	0.88608935000000	-0.00627211000000	-9.01333971000000	-2.94317173000000	-4.92416912000000	-10.59293315000000	21.80382675000000	0.00000057000000	0.00000000000000	53.24415140000000	-2.66610808000000	-7.18543297000000	-38.34362021000000	9.35400012000000	0.00000000000000	0.00000000000000	-15.08969583000000	-6.25807845000000	6.09906455000000	
3.75000000000000	-7.11946296000000	1.69633434000000	-3.72921941000000	-0.12193712000000	0.88519302000000	-0.00693566000000	-9.28312112000000	-3.25449103000000	-4.46924456000000	-11.74229753000000	22.15374078000000	0.00000058000000	0.00000000000000	53.19869058000000	-2.66324961000000	-6.95741242000000	-39.94160132000000	8.98398133000000	0.00000007000000	0.00000000000000	-15.01864190000000	-6.47737928000000	6.30663100000000	
3.76000000000000	-7.07489055000000	1.73561903000000	-4.08729663000000	-0.11992961000000	0.88511318000000	-0.00786142000000	-9.45963047000000	-3.69252886000000	-4.09872241000000	-13.12205550000000	22.44788109000000	0.00000063000000	0.00000000000000	53.39527363000000	-2.59301131000000	-6.56240293000000	-42.21078800000000	11.04001534000000	0.00000010000000	0.00000000000000	-15.03756039000000	-6.75753660000000	6.46481066000000	
3.77000000000000	-7.01627067000000	1.85397727000000	-4.40855877000000	-0.11783368000000	0.88576470000000	-0.00910415000000	-9.43502538000000	-4.26112044000000	-3.77959002000000	-14.84096588000000	22.72956077000000	0.00000062000000	0.00000000000000	53.40936018000000	-2.47044644000000	-6.25048127000000	-44.21812490000000	13.47226216000000	0.00000011000000	0.00000000000000	-15.10906980000000	-7.09987517000000	6.60087699000000	
3.78000000000000	-6.93331840000000	2.01698626000000	-4.70343135000000	-0.11580755000000	0.88716532000000	-0.01028156000000	-9.17639051000000	-4.89967129000000	-3.51732759000000	-16.91209408000000	22.95549978000000	0.00000061000000	0.00000000000000	53.13866772000000	-2.27903077000000	-6.07020321000000	-45.83002756000000	15.89818323000000	0.00000006000000	0.00000000000000	-15.24292296000000	-7.49594203000000	6.73646780000000	
3.79000000000000	-6.90968002000000	2.11829685000000	-4.95563672000000	-0.11377385000000	0.88898042000000	-0.01166391000000	-8.62155266000000	-5.45844676000000	-3.25642687000000	-19.28461772000000	22.75804915000000	0.00000060000000	0.00000000000000	52.68810066000000	-2.05863383000000	-5.85889841000000	-47.01369184000000	17.90436195000000	0.00000006000000	0.00000000000000	-15.32150532000000	-7.81236728000000	6.93324592000000	
3.80000000000000	-6.89133633000000	2.07087213000000	-5.14495691000000	-0.11159386000000	0.89117400000000	-0.01312179000000	-7.84604074000000	-5.81704760000000	-3.08297865000000	-21.89953812000000	22.17813581000000	0.00000060000000	0.00000000000000	52.00161724000000	-1.90168723000000	-5.63323191000000	-47.76712757000000	19.12224118000000	0.00000006000000	0.00000000000000	-15.31480723000000	-7.89471628000000	7.02250880000000	
3.81000000000000	-6.94816521000000	1.95642608000000	-5.33581082000000	-0.10978335000000	0.89364771000000	-0.01450031000000	-6.65097898000000	-6.01640138000000	-2.84836525000000	-24.89897033000000	21.11997846000000	0.00000055000000	0.00000000000000	51.16068082000000	-1.83683288000000	-5.51780923000000	-48.03715301000000	19.60636980000000	0.00000013000000	0.00000000000000	-15.26634774000000	-7.92633251000000	7.18106255000000	
3.82000000000000	-7.06177170000000	1.71249669000000	-5.49344906000000	-0.10820169000000	0.89639083000000	-0.01573776000000	-5.16373959000000	-5.98612015000000	-2.66987063000000	-28.08407988000000	19.41306125000000	0.00000058000000	0.00000000000000	50.22970558000000	-1.97214889000000	-5.52865675000000	-48.02564827000000	19.76068619000000	0.00000008000000	0.00000000000000	-15.15903506000000	-7.81900352000000	7.30940671000000	
3.83000000000000	-7.18220384000000	1.43099759000000	-5.63183910000000	-0.10699789000000	0.89941304000000	-0.01692916000000	-3.33106957000000	-5.84295063000000	-2.45137232000000	-31.71299898000000	17.49778641000000	0.00000051000000	0.00000000000000	49.23694038000000	-2.18086937000000	-5.59371160000000	-47.87505403000000	19.95270677000000	0.00000014000000	0.00000000000000	-15.05945048000000	-7.66074741000000	7.38264955000000	
3.84000000000000	-7.27760725000000	1.13312321000000	-5.70577004000000	-0.10605810000000	0.90271832000000	-0.01799725000000	-1.35963271000000	-5.54760607000000	-2.08446240000000	-35.47655821000000	14.77786877000000	0.00000055000000	0.00000000000000	48.17545140000000	-2.44183982000000	-5.71454453000000	-47.65220352000000	20.41738355000000	0.00000017000000	0.00000000000000	-15.00091921000000	-7.47746698000000	7.34476398000000	
3.85000000000000	-7.38216520000000	0.82156651000000	-5.75118048000000	-0.10550355000000	0.90611117000000	-0.01895679000000	0.66310186000000	-5.09828647000000	-1.57415671000000	-39.13727332000000	10.47771380000000	0.00000060000000	0.00000000000000	47.09089936000000	-2.73644774000000	-5.84661417000000	-47.33732137000000	20.82373738000000	0.00000021000000	0.00000000000000	-14.95125634000000	-7.25593471000000	7.22288995000000	
3.86000000000000	-7.49461691000000	0.55888676000000	-5.83154483000000	-0.10518789000000	0.90965572000000	-0.01969434000000	2.73713022000000	-4.57146837000000	-0.97015565000000	-42.70662508000000	5.09179750000000	0.00000053000000	0.00000000000000	45.81412058000000	-3.06263550000000	-6.13745705000000	-46.63798162000000	20.63611531000000	0.00000020000000	0.00000000000000	-14.87943858000000	-7.08938016000000	7.10955948000000	
3.87000000000000	-7.62630374000000	0.28101767000000	-5.73103635000000	-0.10558561000000	0.91312299000000	-0.02070730000000	5.13411864000000	-4.06647772000000	-0.73190261000000	-46.72502302000000	0.27960244000000	0.00000058000000	0.00000000000000	44.66343427000000	-3.21486879000000	-6.16669575000000	-46.02469222000000	20.86891882000000	0.00000024000000	0.00000000000000	-14.85878857000000	-6.84754011000000	6.79519197000000	
3.88000000000000	-7.72112709000000	0.10687428000000	-5.79436232000000	-0.10597923000000	0.91675322000000	-0.02117258000000	7.47538829000000	-3.57522799000000	-0.33872007000000	-50.57781235000000	-4.11401909000000	0.00000055000000	0.00000000000000	43.38297191000000	-3.42787351000000	-6.36709605000000	-45.25802511000000	21.07297803000000	0.00000019000000	0.00000000000000	-14.82450458000000	-6.76394665000000	6.63769770000000	
3.89000000000000	-7.75493328000000	1.90677716000000	-5.65030645000000	-0.10656274000000	0.91438500000000	-0.01958459000000	15.39157147000000	1.69659281000000	8.84855023000000	-63.33195353000000	14.07455645000000	0.00000075000000	0.00000000000000	42.56183864000000	-2.09139351000000	-7.79095097000000	-45.20284202000000	21.37218385000000	0.00000022000000	0.00000000000000	-14.48861822000000	-9.07145809000000	5.83299351000000	
3.90000000000000	-7.91036821000000	1.87455114000000	-5.57660532000000	-0.10686600000000	0.91782401000000	-0.02020742000000	17.09712218000000	1.90817224000000	8.58901473000000	-65.38249743000000	11.78418028000000	0.00000084000000	0.00000000000000	41.26702991000000	-2.04327096000000	-7.96490429000000	-44.29244116000000	21.74936594000000	0.00000024000000	0.00000000000000	-14.32387768000000	-9.07406093000000	5.55532757000000	
3.91000000000000	-8.08916463000000	1.81663333000000	-5.47136630000000	-0.10726467000000	0.92115439000000	-0.02091281000000	18.73994690000000	2.09735397000000	8.23348033000000	-67.07217217000000	10.71677410000000	0.00000091000000	0.00000000000000	39.95823316000000	-2.00418870000000	-8.11818144000000	-43.23126451000000	21.98249391000000	0.00000027000000	0.00000000000000	-14.12832714000000	-9.00169406000000	5.25533928000000	
3.92000000000000	-8.30058854000000	1.75165114000000	-5.35566221000000	-0.10777461000000	0.92454948000000	-0.02160527000000	20.46081336000000	2.21212604000000	7.83444273000000	-68.38503313000000	9.28096074000000	0.00000087000000	0.00000000000000	38.61615931000000	-1.96537889000000	-8.19998916000000	-42.07978504000000	21.99227963000000	0.00000016000000	0.00000000000000	-13.91228954000000	-8.90690551000000	4.99886238000000	
3.93000000000000	-8.70540651000000	1.36486532000000	-5.08785213000000	-0.10898577000000	0.92737128000000	-0.02249033000000	22.45397277000000	2.59077636000000	7.19225584000000	-69.27439900000000	7.42002999000000	0.00000090000000	0.00000000000000	37.56989746000000	-2.13605003000000	-7.96551000000000	-40.89337540000000	21.56234079000000	0.00000015000000	0.00000000000000	-13.59283601000000	-8.40292615000000	4.69395830000000	
3.94000000000000	-8.71404869000000	1.51587417000000	-5.17532864000000	-0.10881110000000	0.93122275000000	-0.02287981000000	23.98736037000000	2.40072856000000	6.92203396000000	-69.77503766000000	5.17597114000000	0.00000104000000	0.00000000000000	35.60049647000000	-1.93682666000000	-8.36869344000000	-38.93765491000000	20.49034237000000	0.00000019000000	0.00000000000000	-13.49177701000000	-8.58214755000000	4.57991171000000	
3.95000000000000	-8.89949475000000	1.31869094000000	-5.06697050000000	-0.10966701000000	0.93446487000000	-0.02347772000000	25.72394362000000	2.48690638000000	6.22647499000000	-69.89396638000000	2.51428767000000	0.00000100000000	0.00000000000000	34.08139520000000	-1.97416726000000	-8.42338452000000	-37.35525481000000	19.89312444000000	0.00000015000000	0.00000000000000	-13.35593094000000	-8.32870566000000	4.35411294000000	
